<svg xmlns="http://www.w3.org/2000/svg" xmlns:xlink="http://www.w3.org/1999/xlink" width="289" height="71" viewBox="0 0 289 71">
  <defs>
    <style>
      .cls-1 {
        fill: none;
      }

      .cls-2 {
        clip-path: url(#clip-path);
      }

      .cls-3 {
        fill: #fff;
        stroke: #004277;
        stroke-width: 5px;
      }

      .cls-4 {
        stroke: none;
      }

      .cls-5 {
        filter: url(#Rectangle_3);
      }
    </style>
    <clipPath id="clip-path">
      <rect class="cls-1" width="289" height="71"/>
    </clipPath>
    <filter id="Rectangle_3" x="0" y="0" width="289" height="71" filterUnits="userSpaceOnUse">
      <feOffset dy="3" input="SourceAlpha"/>
      <feGaussianBlur stdDeviation="3" result="blur"/>
      <feFlood flood-opacity="0.325"/>
      <feComposite operator="in" in2="blur"/>
      <feComposite in="SourceGraphic"/>
    </filter>
  </defs>
  <g id="BlankButton" class="cls-2">
    <g class="cls-5" transform="matrix(1, 0, 0, 1, 0, 0)">
      <g id="Rectangle_3-2" data-name="Rectangle 3" class="cls-3" transform="translate(9 6)">
        <path class="cls-4" d="M20,0H271a0,0,0,0,1,0,0V33a20,20,0,0,1-20,20H0a0,0,0,0,1,0,0V20A20,20,0,0,1,20,0Z"/>
        <path class="cls-1" d="M20,2.5H266A2.5,2.5,0,0,1,268.5,5V33A17.5,17.5,0,0,1,251,50.5H5A2.5,2.5,0,0,1,2.5,48V20A17.5,17.5,0,0,1,20,2.5Z"/>
      </g>
    </g>
  </g>
</svg>
