<svg xmlns="http://www.w3.org/2000/svg" xmlns:xlink="http://www.w3.org/1999/xlink" width="219.667" height="256.141" viewBox="0 0 219.667 256.141">
  <defs>
    <style>
      .cls-1 {
        fill: none;
      }

      .cls-2 {
        clip-path: url(#clip-path);
      }

      .cls-3 {
        fill: #004277;
      }
    </style>
    <clipPath id="clip-path">
      <rect class="cls-1" width="219.667" height="256.141"/>
    </clipPath>
  </defs>
  <g id="Logo" class="cls-2">
    <path id="Path_1" data-name="Path 1" class="cls-3" d="M811.395,272.978l-.112,5.556,4.143-1.794Z" transform="translate(-616.522 -244.831)"/>
    <path id="Path_2" data-name="Path 2" class="cls-3" d="M462.368,414.717a5.543,5.543,0,0,0-7.182,3.11,5.579,5.579,0,1,0,10.332,4.212,5.769,5.769,0,0,0-3.15-7.322Z" transform="translate(-378.863 -339.05)"/>
    <path id="Path_3" data-name="Path 3" class="cls-3" d="M255.752,271.017V412.029a18.071,18.071,0,1,0,7.393,14.578,18.194,18.194,0,0,0-.164-2.407V309.625L317.2,286.2v99.909a18.071,18.071,0,1,0,7.12,14.373h.109v-117.4l53.89-23.281V362.409a18.072,18.072,0,1,0,7.174,14.415h.055V256.675l53.89-23.281v150a18.073,18.073,0,1,0,7.229,14.458V188.539ZM274.438,293.3,262.357,281.3l2.235-.968,7.5,7.579-.524-11.386,7.786,8.242-.175-10.75,2.235-.968.185,17.145-7.692-8.146Zm23.876-11.378-2.758-6.369-5.883,2.548,2.758,6.37-2.058.891-5.906-13.64,2.058-.891,2.311,5.336,5.883-2.548-2.311-5.336,2.059-.891,5.906,13.64Zm17.376-9.674a7.854,7.854,0,0,1-9.742,4.491,7.674,7.674,0,0,1-4.641-10.16,7.574,7.574,0,0,1,4.158-4.255,7.774,7.774,0,0,1,10.165,4.022A7.308,7.308,0,0,1,315.689,272.253Zm20.155-7.752a4.692,4.692,0,0,1-2.6,2.6,4.57,4.57,0,0,1-3.388.218,5.273,5.273,0,0,1-2.7-2.343l1.886-1.362a3.856,3.856,0,0,0,1.214,1.447,2.562,2.562,0,0,0,3.558-1.257,2.431,2.431,0,0,0-.072-1.91,2.5,2.5,0,0,0-.426-.681,2.022,2.022,0,0,0-.609-.46,3.025,3.025,0,0,0-.831-.259,6.375,6.375,0,0,0-1.084-.081l-1.553.022q-3.313.029-4.3-2.25A3.58,3.58,0,0,1,325,255.1a4.625,4.625,0,0,1,2.473-2.309,4.449,4.449,0,0,1,4.679.7l-1.241,1.712a3.133,3.133,0,0,0-1.352-.674,2.271,2.271,0,0,0-1.262.211,2.3,2.3,0,0,0-1.212,1.1,1.644,1.644,0,0,0-.045,1.446q.433,1,2.181.965l1.6-.033a6.329,6.329,0,0,1,3.139.587,4.025,4.025,0,0,1,1.8,2.039A4.54,4.54,0,0,1,335.844,264.5Zm14.825-5.244-2.866-2.693-5.839,2.529-.085,3.971-2.217.96.472-17.419,12.788,11.677Zm7.373-3.193-2.058.891-6.308-14.568,14.454,6.1-4.1-9.479,2.058-.891,6.266,14.47-14.442-6.073Zm24.995-13.058a6.733,6.733,0,0,1-3.906,4.231,7.24,7.24,0,0,1-5.8.056,7.759,7.759,0,0,1,3.121-14.937,9.388,9.388,0,0,1,3.524.992l-.858,2.04a5.425,5.425,0,0,0-5.058-.464,5.326,5.326,0,0,0-2.984,3.065,5.433,5.433,0,0,0,.125,4.31,5.584,5.584,0,0,0,7.166,2.982,4.479,4.479,0,0,0,2.286-2.207,3.975,3.975,0,0,0,.281-3.059l-3.4,1.473-.837-1.935,5.636-2.441.2.451a10.141,10.141,0,0,1,.816,2.878A6.3,6.3,0,0,1,383.037,243.006ZM398,238.763l-5.069-11.705-3.136,1.358-.838-1.935,8.322-3.6.838,1.935-3.127,1.354,5.068,11.705Zm16.322-7.068-2.758-6.37-5.884,2.548,2.758,6.369-2.058.891-5.906-13.64,2.058-.891,2.31,5.336,5.884-2.548-2.311-5.336,2.058-.891,5.906,13.64Zm16.128-6.984-2.866-2.693-5.839,2.528-.085,3.971-2.217.96.472-17.419L432.7,223.736Zm6.26-2.711L431.638,210.3l-3.137,1.358-.837-1.935,8.322-3.6.838,1.935L433.7,209.4l5.069,11.705Z" transform="translate(-227 -188.539)"/>
    <path id="Path_4" data-name="Path 4" class="cls-3" d="M572.06,376.614l-.112,5.556,4.143-1.794Z" transform="translate(-456.965 -313.922)"/>
  </g>
</svg>
